<?xml version="1.0" standalone="no"?>
<!DOCTYPE svg PUBLIC "-//W3C//DTD SVG 20010904//EN"
 "http://www.w3.org/TR/2001/REC-SVG-20010904/DTD/svg10.dtd">
<svg version="1.0" xmlns="http://www.w3.org/2000/svg"
 width="226.000000pt" height="226.000000pt" viewBox="0 0 226.000000 226.000000"
 preserveAspectRatio="xMidYMid meet">
<metadata>
Created by potrace 1.11, written by Peter Selinger 2001-2013
</metadata>
<g transform="translate(0.000000,226.000000) scale(0.100000,-0.100000)"
fill="#000000" stroke="none">
<path d="M1140 2243 c0 -4 -12 -9 -26 -10 -15 0 -30 -7 -35 -15 -7 -10 -9 -10
-9 2 -1 11 -4 10 -15 -4 -11 -14 -15 -16 -15 -5 -1 10 -3 10 -11 -3 -5 -10
-16 -15 -24 -12 -8 4 -15 1 -15 -5 0 -6 -3 -10 -7 -9 -19 3 -101 -27 -96 -35
3 -6 1 -7 -6 -3 -6 4 -19 2 -27 -5 -8 -6 -17 -9 -21 -5 -3 3 -15 -2 -26 -11
-11 -10 -17 -13 -13 -6 4 8 -2 8 -20 -2 -15 -8 -31 -12 -36 -9 -4 3 -8 0 -8
-5 0 -6 -12 -11 -26 -11 -14 0 -39 -9 -54 -20 -21 -15 -30 -17 -33 -8 -4 10
-6 10 -6 1 -1 -7 -10 -13 -22 -13 -11 0 -18 -4 -15 -8 3 -5 -5 -8 -17 -7 -12
1 -28 -4 -35 -11 -7 -7 -20 -10 -29 -7 -10 4 -14 2 -10 -4 4 -6 -4 -10 -20
-10 -15 0 -29 -5 -31 -11 -1 -5 -12 -8 -22 -5 -11 3 -20 0 -20 -6 0 -6 -9 -11
-20 -11 -11 0 -20 -4 -20 -8 0 -4 -12 -9 -27 -10 -15 -1 -30 -7 -34 -13 -5 -8
-9 -8 -14 1 -5 7 -10 8 -14 2 -9 -14 -91 -52 -91 -41 0 5 -15 0 -34 -10 -19
-11 -37 -17 -40 -14 -3 4 -6 -10 -6 -30 0 -21 4 -37 9 -37 10 0 7 -32 -4 -50
-3 -6 0 -10 7 -10 9 0 9 -3 -2 -10 -10 -6 -11 -10 -2 -10 8 0 12 -17 12 -50 0
-27 4 -50 8 -50 5 0 9 -7 9 -15 0 -8 -5 -15 -11 -15 -8 0 -7 -3 0 -8 6 -4 14
-39 17 -79 3 -39 8 -76 11 -82 4 -5 2 -13 -4 -16 -8 -5 -7 -11 1 -21 6 -7 9
-34 7 -59 -2 -31 1 -46 11 -50 11 -4 11 -8 1 -20 -10 -12 -10 -15 1 -15 9 0
10 -3 2 -11 -8 -8 -7 -18 3 -37 9 -17 10 -28 3 -30 -6 -3 -6 -8 -1 -15 16 -20
21 -57 9 -57 -8 0 -7 -4 2 -9 9 -6 10 -11 2 -15 -6 -4 -11 -12 -11 -17 0 -6 5
-7 10 -4 6 4 10 -16 10 -54 0 -33 5 -63 10 -66 6 -4 8 -10 5 -15 -11 -17 -12
-70 -2 -63 6 4 8 0 4 -10 -3 -10 -3 -17 2 -17 11 0 9 -33 -2 -41 -5 -3 -2 -13
7 -21 11 -11 12 -18 3 -27 -7 -7 -7 -11 -1 -11 6 0 11 -16 12 -35 1 -20 4 -40
7 -45 3 -4 -1 -11 -7 -13 -10 -4 -10 -6 -1 -6 7 -1 10 -8 7 -16 -4 -8 -1 -15
5 -15 6 0 8 -8 3 -22 -15 -47 6 -102 35 -91 11 4 14 3 9 -5 -4 -7 -1 -12 8
-12 9 0 16 -3 16 -8 0 -4 15 -14 33 -21 17 -8 38 -21 46 -28 7 -8 20 -12 28
-9 8 3 12 2 9 -2 -3 -4 4 -14 16 -21 16 -10 19 -10 13 1 -4 8 -1 7 7 -2 7 -8
20 -16 28 -18 8 -2 19 -10 23 -18 4 -8 19 -14 33 -14 14 0 23 -4 20 -8 -3 -5
15 -17 39 -27 25 -10 42 -22 38 -28 -3 -6 -1 -7 6 -3 6 4 18 0 27 -9 9 -9 29
-19 45 -22 16 -3 26 -9 23 -14 -3 -5 2 -9 11 -9 9 0 23 -7 32 -15 8 -8 19 -13
24 -10 5 4 9 1 9 -5 0 -6 5 -8 10 -5 6 3 13 -1 16 -9 3 -9 10 -13 15 -10 5 3
9 1 9 -4 0 -9 20 -18 58 -27 8 -2 19 -11 26 -20 6 -9 21 -17 34 -18 12 0 22
-7 22 -14 0 -6 5 -15 12 -19 7 -5 8 -3 3 5 -10 16 34 -8 53 -29 7 -8 11 -9 7
-2 -10 19 2 14 25 -10 12 -13 20 -17 20 -9 0 8 6 11 16 7 10 -4 13 -2 8 6 -5
8 -2 9 9 5 10 -3 17 -2 17 3 0 5 16 17 35 26 19 9 35 20 35 24 0 5 10 6 23 3
18 -4 19 -3 7 6 -13 9 -13 11 3 11 9 0 17 5 17 11 0 5 5 7 11 3 6 -3 24 3 40
15 16 12 34 19 39 16 6 -3 10 2 10 11 0 10 3 14 7 11 3 -4 15 0 25 10 10 9 18
13 18 9 0 -4 7 0 16 8 8 9 19 14 23 12 4 -3 14 4 21 15 16 21 35 26 25 7 -4
-7 2 -3 13 9 15 17 22 19 32 10 10 -9 11 -9 6 0 -4 7 2 17 14 23 11 6 20 7 20
3 0 -4 5 -1 10 7 5 8 15 15 22 15 7 1 12 6 11 13 -2 7 4 9 14 5 12 -5 14 -3 8
7 -5 9 -4 11 4 6 6 -4 18 0 27 8 9 9 20 14 25 11 5 -4 9 -1 9 5 0 6 13 16 30
21 16 6 27 15 24 20 -3 5 2 6 11 3 9 -4 22 1 31 12 9 11 13 12 9 4 -4 -9 0 -7
9 4 8 10 19 15 25 11 6 -3 11 -2 11 4 0 6 16 18 35 27 19 9 35 20 35 25 0 5 6
6 13 3 23 -8 41 26 43 78 1 28 7 55 12 60 6 6 7 22 2 38 -4 15 -4 33 0 41 5 7
6 17 4 21 -3 4 1 8 8 8 9 0 9 3 -2 10 -8 5 -10 10 -5 10 6 0 11 24 13 53 1 28
6 53 12 55 5 2 5 13 0 28 -6 14 -6 24 -1 24 5 0 8 8 6 18 -1 9 2 23 8 29 6 9
6 13 -3 13 -10 0 -10 3 0 15 10 12 10 15 0 15 -9 0 -9 4 -2 13 5 6 10 29 10
51 0 22 6 42 14 47 9 6 9 9 1 9 -9 0 -10 7 -3 25 5 14 6 25 1 25 -4 0 -8 7 -8
15 0 8 5 11 10 8 6 -4 8 5 5 21 -3 14 -1 26 4 26 5 0 7 4 3 9 -3 5 -1 12 3 15
10 6 9 36 -2 54 -4 7 -2 12 4 12 6 0 8 5 5 10 -3 6 -2 10 2 10 5 0 9 9 9 20 0
11 -4 20 -9 20 -5 0 -4 7 3 15 7 8 9 15 6 15 -4 0 -2 10 5 21 8 16 8 20 -1 14
-9 -6 -9 -2 -1 14 9 16 9 21 -1 21 -9 0 -9 3 2 10 8 5 11 10 7 10 -4 0 -3 8 2
18 6 11 6 24 0 35 -7 11 -6 17 1 17 5 0 10 5 10 11 0 5 -6 7 -12 3 -7 -4 -5 1
4 12 14 16 15 23 6 32 -9 9 -9 12 1 12 8 0 11 7 8 20 -3 11 -2 20 1 20 4 0 7
26 7 58 0 31 4 65 10 75 7 12 6 23 -2 37 -11 17 -10 19 5 14 13 -4 12 -2 -3 7
-11 7 -29 14 -40 15 -31 3 -65 15 -65 25 0 5 -6 6 -14 3 -8 -3 -17 -1 -20 5
-4 6 -13 8 -21 4 -8 -3 -15 0 -15 6 0 6 -13 11 -30 11 -16 0 -30 4 -30 8 0 4
-12 9 -27 10 -15 1 -31 9 -36 17 -4 9 -12 13 -18 10 -5 -4 -14 -3 -21 1 -7 4
-23 9 -37 10 -13 2 -27 7 -30 11 -3 4 -15 10 -26 11 -11 2 -23 9 -27 15 -4 7
-12 6 -24 -4 -11 -9 -15 -9 -10 -1 4 7 1 12 -8 12 -9 0 -16 6 -16 13 0 8 -4 7
-10 -3 -6 -10 -10 -11 -10 -2 0 6 -3 11 -7 10 -5 -1 -21 4 -38 11 -16 7 -38
13 -47 14 -10 1 -18 4 -18 7 0 5 -22 10 -62 13 -9 1 -16 6 -15 12 1 5 -8 9
-20 9 -13 -1 -23 3 -23 8 0 6 -7 7 -15 4 -9 -3 -18 1 -22 9 -4 12 -9 13 -19 4
-8 -6 -14 -7 -14 -3 0 5 -9 15 -21 22 -17 11 -20 11 -14 0 6 -10 5 -11 -6 0
-7 6 -21 12 -32 12 -12 0 -16 4 -11 13 6 9 4 9 -8 -1 -11 -9 -18 -10 -23 -2
-3 5 -15 10 -26 10 -10 0 -19 5 -19 11 0 5 -4 8 -9 4 -5 -3 -17 2 -25 11 -9 8
-16 12 -16 7z"/>
</g>
</svg>
